<?xml version="1.0" encoding="utf-8"?>
<svg xmlns="http://www.w3.org/2000/svg" viewBox="0 0 179 41" width="179px" height="41px">
  <defs>
    <clipPath id="a">
      <path fill="#fff" d="M0 0h40v41H0z"/>
    </clipPath>
  </defs>
  <g clip-path="url(#a)" transform="matrix(1.00712, 0, 0, 1.02499, 0, -0.528677)">
    <path fill="#C7231A" fill-rule="evenodd" d="M13.715.516c-2.257 0-4.42.896-6.016 2.492L0 10.707v3.524c0 2.49 1.07 4.73 2.774 6.285A8.485 8.485 0 0 0 0 26.802v3.524l7.699 7.698A8.507 8.507 0 0 0 20 37.742a8.508 8.508 0 0 0 12.301.282L40 30.326v-3.524c0-2.49-1.07-4.73-2.774-6.286A8.485 8.485 0 0 0 40 14.231v-3.524l-7.699-7.7A8.508 8.508 0 0 0 20 3.29 8.485 8.485 0 0 0 13.715.516Zm12.044 20a8.528 8.528 0 0 1-.282-.27L20 14.77l-5.477 5.477a8.528 8.528 0 0 1-.282.27c.096.087.19.177.282.269L20 26.262l5.477-5.476c.092-.093.186-.182.282-.27Zm-3.537 9.81v1.682a4.063 4.063 0 0 0 6.936 2.874l6.398-6.397v-1.683a4.063 4.063 0 0 0-6.937-2.874l-6.397 6.398Zm-4.444 0-6.397-6.398a4.063 4.063 0 0 0-6.937 2.873v1.684l6.397 6.397a4.063 4.063 0 0 0 6.937-2.873v-1.683Zm0-21.302v1.683l-6.397 6.397a4.063 4.063 0 0 1-6.937-2.873v-1.683l6.397-6.397a4.063 4.063 0 0 1 6.937 2.873Zm10.841 8.08-6.397-6.397V9.024a4.063 4.063 0 0 1 6.936-2.873l6.398 6.397v1.683a4.063 4.063 0 0 1-6.937 2.873Z" clip-rule="evenodd"/>
  </g>
  <path d="M 54.705 29.196 L 54.705 11.976 L 66.271 11.976 L 66.271 15.149 L 58.282 15.149 L 58.282 18.839 L 65.05 18.839 L 65.05 21.779 L 58.282 21.779 L 58.282 25.986 L 66.367 25.986 L 66.367 29.196 L 54.705 29.196 Z M 67.614 29.22 L 72.013 23.034 L 67.844 16.773 L 72.303 16.773 L 74.466 20.549 L 76.569 16.773 L 80.92 16.773 L 76.871 22.96 L 81.234 29.196 L 76.714 29.196 L 74.346 25.407 L 71.941 29.159 L 67.614 29.22 Z M 88.051 29.565 C 86.746 29.565 85.715 29.192 84.958 28.446 C 84.208 27.691 83.834 26.555 83.834 25.038 L 83.834 13.194 L 87.363 13.194 L 87.363 16.773 L 90.396 16.773 L 90.396 19.651 L 87.363 19.651 L 87.363 24.387 C 87.363 25.116 87.512 25.629 87.81 25.924 C 88.108 26.219 88.507 26.367 89.006 26.367 C 89.264 26.367 89.514 26.338 89.756 26.281 C 90.005 26.215 90.235 26.125 90.444 26.01 L 90.94 28.839 C 90.577 29.044 90.142 29.216 89.635 29.356 C 89.119 29.497 88.586 29.568 88.051 29.565 Z M 81.356 19.651 L 81.356 16.773 L 84.184 16.773 L 84.184 19.651 L 81.355 19.651 L 81.356 19.651 Z M 98.604 29.565 C 97.275 29.565 96.106 29.29 95.099 28.741 C 94.116 28.215 93.3 27.417 92.743 26.441 C 92.179 25.457 91.897 24.305 91.897 22.984 C 91.897 22.025 92.058 21.143 92.38 20.34 C 92.695 19.559 93.165 18.852 93.758 18.261 C 94.358 17.669 95.069 17.204 95.849 16.896 C 96.654 16.568 97.537 16.404 98.495 16.404 C 99.551 16.404 100.485 16.593 101.299 16.97 C 102.094 17.326 102.795 17.87 103.342 18.556 C 103.881 19.229 104.256 20.02 104.466 20.93 C 104.683 21.84 104.703 22.829 104.526 23.895 L 95.172 23.895 C 95.172 24.469 95.317 24.969 95.607 25.395 C 95.905 25.822 96.32 26.158 96.852 26.404 C 97.392 26.642 98.02 26.76 98.737 26.76 C 99.446 26.76 100.123 26.662 100.767 26.465 C 101.418 26.265 102.034 25.962 102.592 25.567 L 103.765 28.027 C 103.378 28.331 102.894 28.601 102.314 28.839 C 101.734 29.069 101.118 29.245 100.465 29.368 C 99.853 29.496 99.23 29.562 98.604 29.565 Z M 95.377 21.422 L 101.142 21.422 C 101.118 20.692 100.864 20.114 100.381 19.688 C 99.905 19.262 99.249 19.048 98.411 19.048 C 97.573 19.048 96.876 19.262 96.32 19.688 C 95.772 20.114 95.458 20.692 95.377 21.422 Z M 106.584 29.196 L 106.584 16.773 L 110.112 16.773 L 110.112 18.175 C 110.58 17.552 111.132 17.101 111.768 16.822 C 112.406 16.544 113.093 16.403 113.786 16.404 C 114.922 16.404 115.857 16.634 116.59 17.093 C 117.331 17.544 117.879 18.13 118.234 18.852 C 118.596 19.573 118.778 20.332 118.778 21.127 L 118.778 29.196 L 115.249 29.196 L 115.249 22.246 C 115.249 21.459 115.031 20.832 114.596 20.365 C 114.169 19.897 113.549 19.663 112.735 19.663 C 112.219 19.663 111.764 19.782 111.369 20.02 C 110.975 20.25 110.664 20.574 110.439 20.992 C 110.221 21.41 110.112 21.894 110.112 22.443 L 110.112 29.196 L 106.584 29.196 Z M 126.011 29.553 C 124.923 29.553 123.92 29.409 123.002 29.122 C 122.083 28.827 121.298 28.425 120.645 27.917 L 121.793 25.407 C 122.432 25.851 123.126 26.203 123.86 26.453 C 124.601 26.699 125.314 26.822 125.999 26.822 C 126.676 26.822 127.195 26.719 127.558 26.514 C 127.928 26.301 128.114 25.998 128.114 25.604 C 128.114 25.252 127.949 24.993 127.618 24.829 C 127.296 24.657 126.667 24.473 125.733 24.276 C 124.121 23.981 122.945 23.517 122.204 22.886 C 121.463 22.246 121.092 21.369 121.092 20.254 C 121.092 19.467 121.306 18.774 121.733 18.175 C 122.168 17.577 122.764 17.113 123.521 16.785 C 124.279 16.449 125.149 16.281 126.132 16.281 C 127.099 16.281 128.009 16.416 128.863 16.687 C 129.725 16.949 130.462 17.318 131.075 17.794 L 129.963 20.315 C 129.621 20.041 129.248 19.809 128.851 19.627 C 128.433 19.428 127.996 19.275 127.546 19.171 C 127.112 19.059 126.664 19.001 126.216 18.999 C 125.628 18.999 125.153 19.102 124.79 19.307 C 124.428 19.504 124.246 19.782 124.246 20.143 C 124.246 20.504 124.412 20.77 124.742 20.943 C 125.072 21.115 125.689 21.303 126.591 21.508 C 128.275 21.869 129.471 22.349 130.18 22.947 C 130.897 23.538 131.256 24.37 131.256 25.444 C 131.256 26.273 131.034 26.994 130.591 27.609 C 130.156 28.224 129.544 28.704 128.754 29.048 C 127.973 29.384 127.058 29.553 126.011 29.553 Z M 133.477 29.196 L 133.477 16.773 L 137.006 16.773 L 137.006 29.196 L 133.477 29.196 Z M 135.241 14.805 C 134.684 14.816 134.142 14.619 133.718 14.251 C 133.291 13.874 133.078 13.374 133.078 12.751 C 133.078 12.119 133.291 11.619 133.718 11.25 C 134.139 10.875 134.682 10.673 135.241 10.684 C 135.8 10.673 136.343 10.875 136.764 11.25 C 137.191 11.619 137.404 12.119 137.404 12.751 C 137.404 13.374 137.191 13.874 136.764 14.251 C 136.34 14.619 135.798 14.816 135.241 14.805 Z M 145.677 29.565 C 144.364 29.565 143.199 29.266 142.184 28.667 C 141.197 28.096 140.372 27.274 139.791 26.281 C 139.219 25.28 138.923 24.142 138.933 22.984 C 138.933 22.107 139.098 21.275 139.429 20.487 C 139.755 19.699 140.231 18.984 140.831 18.384 C 141.435 17.769 142.148 17.285 142.97 16.933 C 143.792 16.58 144.694 16.404 145.677 16.404 C 146.99 16.404 148.15 16.703 149.157 17.302 C 150.145 17.873 150.967 18.701 151.538 19.7 C 152.118 20.692 152.408 21.787 152.408 22.984 C 152.408 23.854 152.243 24.686 151.913 25.481 C 151.586 26.273 151.109 26.991 150.511 27.597 C 149.901 28.213 149.179 28.702 148.384 29.036 C 147.562 29.389 146.66 29.565 145.677 29.565 Z M 145.677 26.453 C 146.297 26.453 146.853 26.314 147.345 26.035 C 147.836 25.748 148.223 25.346 148.505 24.829 C 148.787 24.305 148.928 23.69 148.928 22.984 C 148.928 22.271 148.787 21.656 148.505 21.139 C 148.244 20.636 147.845 20.222 147.357 19.946 C 146.865 19.659 146.305 19.516 145.677 19.516 C 145.048 19.516 144.484 19.659 143.985 19.946 C 143.493 20.225 143.107 20.623 142.825 21.139 C 142.551 21.656 142.414 22.271 142.414 22.984 C 142.414 23.698 142.555 24.313 142.837 24.829 C 143.119 25.346 143.506 25.748 143.997 26.035 C 144.488 26.314 145.048 26.453 145.677 26.453 Z M 154.326 29.196 L 154.326 16.773 L 157.855 16.773 L 157.855 18.175 C 158.322 17.552 158.874 17.101 159.511 16.822 C 160.148 16.544 160.835 16.403 161.529 16.404 C 162.665 16.404 163.6 16.634 164.333 17.093 C 165.074 17.544 165.622 18.13 165.976 18.852 C 166.339 19.573 166.52 20.332 166.52 21.127 L 166.52 29.196 L 162.991 29.196 L 162.991 22.246 C 162.991 21.459 162.774 20.832 162.339 20.365 C 161.912 19.897 161.291 19.663 160.478 19.663 C 159.962 19.663 159.507 19.782 159.112 20.02 C 158.717 20.25 158.407 20.574 158.181 20.992 C 157.964 21.41 157.855 21.894 157.855 22.443 L 157.855 29.196 L 154.326 29.196 Z M 173.754 29.553 C 172.667 29.553 171.664 29.409 170.745 29.122 C 169.827 28.827 169.041 28.425 168.388 27.917 L 169.537 25.407 C 170.175 25.851 170.87 26.203 171.603 26.453 C 172.344 26.699 173.057 26.822 173.742 26.822 C 174.419 26.822 174.939 26.719 175.301 26.514 C 175.672 26.301 175.857 25.998 175.857 25.604 C 175.857 25.252 175.692 24.993 175.362 24.829 C 175.039 24.657 174.411 24.473 173.476 24.276 C 171.865 23.981 170.689 23.517 169.947 22.886 C 169.206 22.246 168.836 21.369 168.836 20.254 C 168.836 19.467 169.049 18.774 169.476 18.175 C 169.911 17.577 170.507 17.113 171.265 16.785 C 172.022 16.449 172.892 16.281 173.875 16.281 C 174.842 16.281 175.753 16.416 176.607 16.687 C 177.469 16.949 178.206 17.318 178.818 17.794 L 177.706 20.315 C 177.365 20.041 176.991 19.809 176.594 19.627 C 176.177 19.428 175.739 19.275 175.289 19.171 C 174.855 19.059 174.408 19.001 173.96 18.999 C 173.372 18.999 172.896 19.102 172.534 19.307 C 172.171 19.504 171.99 19.782 171.99 20.143 C 171.99 20.504 172.155 20.77 172.485 20.943 C 172.816 21.115 173.432 21.303 174.334 21.508 C 176.018 21.869 177.215 22.349 177.924 22.947 C 178.641 23.538 178.999 24.37 178.999 25.444 C 178.999 26.273 178.778 26.994 178.335 27.609 C 177.9 28.224 177.287 28.704 176.498 29.048 C 175.716 29.384 174.802 29.553 173.754 29.553 Z" style="fill: rgb(254, 251, 251);"/>
</svg>